<svg version="1.1" id="Layer_1" xmlns="http://www.w3.org/2000/svg" xmlns:xlink="http://www.w3.org/1999/xlink" x="0px" y="0px"
	 width="100%" viewBox="0 0 699 674" enable-background="new 0 0 699 674" xml:space="preserve">
<path fill="transparent" opacity="1.000000" stroke="none"
	d="
M700.000000,244.000000
	C700.000000,388.000000 700.000000,531.500000 700.000000,675.000000
	C467.000031,675.000000 234.000046,675.000000 1.000051,675.000000
	C1.000034,450.333374 1.000034,225.666733 1.000017,1.000081
	C233.999954,1.000054 466.999908,1.000054 699.999939,1.000027
	C700.000000,81.833336 700.000000,162.666672 700.000000,244.000000
M163.274536,370.068939
	C168.254257,398.308899 178.206619,424.505035 194.665619,448.177856
	C213.067383,474.644928 236.156845,495.904083 264.547455,511.102600
	C297.609650,528.802002 332.985535,536.283630 370.512817,534.238403
	C401.888641,532.528503 431.559296,524.461609 458.247040,508.295685
	C512.854980,475.217224 546.918945,427.549866 555.113708,363.328918
	C563.371277,298.615479 545.233643,241.951874 498.821777,195.949295
	C450.390900,147.945496 390.969757,130.503830 324.145691,141.401794
	C273.244965,149.702911 232.056168,175.796158 200.529312,216.847137
	C175.142441,249.903229 162.146027,287.395020 161.068237,328.873199
	C160.719635,342.289307 162.401840,355.758209 163.274536,370.068939
M235.916473,63.228737
	C237.137115,58.095474 239.691818,52.867348 239.334763,47.846275
	C238.138931,31.029516 229.787064,22.690113 212.872833,19.855324
	C210.427612,19.445513 207.924255,19.194433 205.447327,19.190781
	C175.287399,19.146280 145.123825,18.907015 114.969666,19.326702
	C106.590652,19.443321 98.032051,20.781010 89.924576,22.941919
	C78.044807,26.108265 67.437447,32.081158 59.244167,41.608784
	C46.459831,56.475143 41.493286,74.067741 41.477638,93.325897
	C41.453400,123.152618 41.433353,152.979477 41.520306,182.805984
	C41.530899,186.441071 41.930763,190.129776 42.634460,193.698135
	C44.994991,205.668091 52.362453,213.131332 64.069626,216.112762
	C76.026558,219.157806 86.073898,215.446411 94.148041,206.405563
	C99.680244,200.211014 100.924103,192.411194 100.955185,184.498962
	C101.073631,154.339417 101.002922,124.179146 101.003021,94.019142
	C101.003067,81.879768 103.992363,78.838905 115.934639,78.838470
	C146.261276,78.837379 176.588821,78.973869 206.914078,78.770317
	C218.815338,78.690437 229.129349,74.805107 235.916473,63.228737
M41.471214,510.499847
	C41.652805,536.808777 41.067383,563.152588 42.262516,589.415405
	C43.192116,609.843262 51.673309,627.429443 68.722130,639.822449
	C82.226250,649.638611 97.648209,653.789429 114.213135,653.821289
	C144.861877,653.880371 175.511032,653.894104 206.159378,653.769226
	C210.108536,653.753174 214.135895,653.141296 217.985718,652.216919
	C229.756531,649.390625 236.567230,641.547485 238.714218,629.887512
	C240.943176,617.782288 237.353271,607.515259 227.264557,600.087463
	C221.152893,595.587708 213.913559,594.209656 206.483994,594.192078
	C175.835327,594.119690 145.186371,594.170227 114.537514,594.156860
	C104.577637,594.152527 101.005966,590.555237 101.004585,580.596985
	C101.000313,549.781555 101.296478,518.961060 100.766830,488.154755
	C100.654701,481.632538 98.899178,474.317841 95.513893,468.844604
	C88.601334,457.668518 76.212845,453.783905 63.730232,456.906830
	C51.725945,459.910156 43.571556,468.830902 42.184223,482.070251
	C41.233948,491.138763 41.660389,500.351532 41.471214,510.499847
M616.830200,124.499954
	C616.830444,144.988571 616.669556,165.478943 616.891968,185.965149
	C617.023193,198.052505 621.371826,208.150330 632.850037,213.793732
	C644.431030,219.487656 655.582642,218.132614 665.555359,210.184219
	C673.530334,203.828049 676.152710,194.770950 676.161011,184.872177
	C676.185425,155.555145 676.233032,126.237831 676.119568,96.921219
	C676.095154,90.611717 675.934387,84.226761 674.968872,78.011307
	C672.219116,60.308907 664.722290,45.030785 650.147278,33.997204
	C636.528503,23.687460 620.836914,19.267590 603.924377,19.197960
	C574.108093,19.075205 544.290894,19.131880 514.474304,19.202982
	C510.670044,19.212051 506.845551,19.591463 503.067078,20.081852
	C480.621552,22.994955 472.022736,47.952366 483.307648,65.610222
	C489.673615,75.571281 499.828064,78.692886 510.899536,78.765854
	C541.714417,78.968941 572.531494,78.828072 603.347717,78.841324
	C613.056335,78.845497 616.818542,82.681328 616.827942,92.517151
	C616.837830,102.844742 616.830200,113.172348 616.830200,124.499954
M483.873718,606.467285
	C474.443085,621.052673 477.136902,639.821289 491.091522,648.200623
	C496.900940,651.688965 504.560364,653.464050 511.424042,653.592712
	C541.574829,654.157898 571.745056,654.059509 601.901917,653.690186
	C610.132629,653.589417 618.590271,652.624878 626.514282,650.474182
	C651.442566,643.708130 667.175110,627.278503 673.432739,602.278015
	C675.231445,595.091675 675.983459,587.479919 676.051392,580.052490
	C676.333191,549.227112 676.254333,518.397339 676.140686,487.569794
	C676.061218,466.014893 659.271912,452.111450 639.302063,456.816406
	C625.293640,460.116913 616.892151,471.495300 616.852356,487.629456
	C616.776367,518.457214 616.832642,549.285339 616.828918,580.113281
	C616.827637,590.559570 613.211487,594.160034 602.708923,594.161743
	C572.214233,594.166809 541.719238,594.083618 511.225037,594.207214
	C500.686432,594.249939 491.201508,597.224060 483.873718,606.467285
z"/>
<path fill="#1F3150" opacity="1.000000" stroke="none"
	d="
M163.214798,369.635925
	C162.401840,355.758209 160.719635,342.289307 161.068237,328.873199
	C162.146027,287.395020 175.142441,249.903229 200.529312,216.847137
	C232.056168,175.796158 273.244965,149.702911 324.145691,141.401794
	C390.969757,130.503830 450.390900,147.945496 498.821777,195.949295
	C545.233643,241.951874 563.371277,298.615479 555.113708,363.328918
	C546.918945,427.549866 512.854980,475.217224 458.247040,508.295685
	C431.559296,524.461609 401.888641,532.528503 370.512817,534.238403
	C332.985535,536.283630 297.609650,528.802002 264.547455,511.102600
	C236.156845,495.904083 213.067383,474.644928 194.665619,448.177856
	C178.206619,424.505035 168.254257,398.308899 163.214798,369.635925
M271.400940,427.098541
	C299.823395,447.811859 331.825775,456.597870 366.689056,454.916107
	C405.432556,453.047119 438.454041,437.891479 465.860352,410.513214
	C473.827240,402.554504 474.166138,391.725403 466.142456,383.309235
	C459.579468,376.425201 450.844025,373.092712 440.719696,380.594391
	C437.921997,382.667328 435.500092,385.246338 432.708832,387.329254
	C426.067505,392.285217 419.712708,397.811218 412.519958,401.806854
	C392.187408,413.101898 370.166565,417.313812 347.049042,414.795502
	C329.954132,412.933289 313.816864,407.752747 299.649750,397.800873
	C291.785828,392.276733 284.804199,385.509796 277.056335,379.803497
	C269.429108,374.186096 258.948120,374.888641 253.124344,380.718536
	C245.168579,388.682678 242.940475,398.971283 249.395721,406.741302
	C255.579865,414.185028 263.602020,420.101776 271.400940,427.098541
M454.135559,272.514313
	C442.877075,253.673599 416.515961,252.409729 404.046356,270.112793
	C395.960754,281.591919 397.544830,299.113739 408.017700,308.526154
	C418.373108,317.832977 433.556274,319.558502 445.665131,310.661163
	C457.476837,301.982147 460.500458,288.654053 454.135559,272.514313
M308.736816,309.264496
	C320.787842,298.999359 322.328613,280.246246 311.900909,267.610596
	C302.643524,256.393066 284.116974,253.869110 271.385651,263.522858
	C258.645630,273.183197 256.582764,292.262421 266.084869,304.963898
	C275.104645,317.020752 294.516113,320.840332 308.736816,309.264496
z"/>
<path fill="#203251" opacity="1.000000" stroke="none"
	d="
M235.773483,63.574989
	C229.129349,74.805107 218.815338,78.690437 206.914078,78.770317
	C176.588821,78.973869 146.261276,78.837379 115.934639,78.838470
	C103.992363,78.838905 101.003067,81.879768 101.003021,94.019142
	C101.002922,124.179146 101.073631,154.339417 100.955185,184.498962
	C100.924103,192.411194 99.680244,200.211014 94.148041,206.405563
	C86.073898,215.446411 76.026558,219.157806 64.069626,216.112762
	C52.362453,213.131332 44.994991,205.668091 42.634460,193.698135
	C41.930763,190.129776 41.530899,186.441071 41.520306,182.805984
	C41.433353,152.979477 41.453400,123.152618 41.477638,93.325897
	C41.493286,74.067741 46.459831,56.475143 59.244167,41.608784
	C67.437447,32.081158 78.044807,26.108265 89.924576,22.941919
	C98.032051,20.781010 106.590652,19.443321 114.969666,19.326702
	C145.123825,18.907015 175.287399,19.146280 205.447327,19.190781
	C207.924255,19.194433 210.427612,19.445513 212.872833,19.855324
	C229.787064,22.690113 238.138931,31.029516 239.334763,47.846275
	C239.691818,52.867348 237.137115,58.095474 235.773483,63.574989
z"/>
<path fill="#203251" opacity="1.000000" stroke="none"
	d="
M41.471298,509.999817
	C41.660389,500.351532 41.233948,491.138763 42.184223,482.070251
	C43.571556,468.830902 51.725945,459.910156 63.730232,456.906830
	C76.212845,453.783905 88.601334,457.668518 95.513893,468.844604
	C98.899178,474.317841 100.654701,481.632538 100.766830,488.154755
	C101.296478,518.961060 101.000313,549.781555 101.004585,580.596985
	C101.005966,590.555237 104.577637,594.152527 114.537514,594.156860
	C145.186371,594.170227 175.835327,594.119690 206.483994,594.192078
	C213.913559,594.209656 221.152893,595.587708 227.264557,600.087463
	C237.353271,607.515259 240.943176,617.782288 238.714218,629.887512
	C236.567230,641.547485 229.756531,649.390625 217.985718,652.216919
	C214.135895,653.141296 210.108536,653.753174 206.159378,653.769226
	C175.511032,653.894104 144.861877,653.880371 114.213135,653.821289
	C97.648209,653.789429 82.226250,649.638611 68.722130,639.822449
	C51.673309,627.429443 43.192116,609.843262 42.262516,589.415405
	C41.067383,563.152588 41.652805,536.808777 41.471298,509.999817
z"/>
<path fill="#1F3151" opacity="1.000000" stroke="none"
	d="
M616.830200,123.999954
	C616.830200,113.172348 616.837830,102.844742 616.827942,92.517151
	C616.818542,82.681328 613.056335,78.845497 603.347717,78.841324
	C572.531494,78.828072 541.714417,78.968941 510.899536,78.765854
	C499.828064,78.692886 489.673615,75.571281 483.307648,65.610222
	C472.022736,47.952366 480.621552,22.994955 503.067078,20.081852
	C506.845551,19.591463 510.670044,19.212051 514.474304,19.202982
	C544.290894,19.131880 574.108093,19.075205 603.924377,19.197960
	C620.836914,19.267590 636.528503,23.687460 650.147278,33.997204
	C664.722290,45.030785 672.219116,60.308907 674.968872,78.011307
	C675.934387,84.226761 676.095154,90.611717 676.119568,96.921219
	C676.233032,126.237831 676.185425,155.555145 676.161011,184.872177
	C676.152710,194.770950 673.530334,203.828049 665.555359,210.184219
	C655.582642,218.132614 644.431030,219.487656 632.850037,213.793732
	C621.371826,208.150330 617.023193,198.052505 616.891968,185.965149
	C616.669556,165.478943 616.830444,144.988571 616.830200,123.999954
z"/>
<path fill="#1F3151" opacity="1.000000" stroke="none"
	d="
M484.070557,606.159668
	C491.201508,597.224060 500.686432,594.249939 511.225037,594.207214
	C541.719238,594.083618 572.214233,594.166809 602.708923,594.161743
	C613.211487,594.160034 616.827637,590.559570 616.828918,580.113281
	C616.832642,549.285339 616.776367,518.457214 616.852356,487.629456
	C616.892151,471.495300 625.293640,460.116913 639.302063,456.816406
	C659.271912,452.111450 676.061218,466.014893 676.140686,487.569794
	C676.254333,518.397339 676.333191,549.227112 676.051392,580.052490
	C675.983459,587.479919 675.231445,595.091675 673.432739,602.278015
	C667.175110,627.278503 651.442566,643.708130 626.514282,650.474182
	C618.590271,652.624878 610.132629,653.589417 601.901917,653.690186
	C571.745056,654.059509 541.574829,654.157898 511.424042,653.592712
	C504.560364,653.464050 496.900940,651.688965 491.091522,648.200623
	C477.136902,639.821289 474.443085,621.052673 484.070557,606.159668
z"/>
<path fill="#FDFEFE" opacity="1.000000" stroke="none"
	d="
M271.108673,426.894073
	C263.602020,420.101776 255.579865,414.185028 249.395721,406.741302
	C242.940475,398.971283 245.168579,388.682678 253.124344,380.718536
	C258.948120,374.888641 269.429108,374.186096 277.056335,379.803497
	C284.804199,385.509796 291.785828,392.276733 299.649750,397.800873
	C313.816864,407.752747 329.954132,412.933289 347.049042,414.795502
	C370.166565,417.313812 392.187408,413.101898 412.519958,401.806854
	C419.712708,397.811218 426.067505,392.285217 432.708832,387.329254
	C435.500092,385.246338 437.921997,382.667328 440.719696,380.594391
	C450.844025,373.092712 459.579468,376.425201 466.142456,383.309235
	C474.166138,391.725403 473.827240,402.554504 465.860352,410.513214
	C438.454041,437.891479 405.432556,453.047119 366.689056,454.916107
	C331.825775,456.597870 299.823395,447.811859 271.108673,426.894073
z"/>
<path fill="#FDFDFD" opacity="1.000000" stroke="none"
	d="
M454.272705,272.868439
	C460.500458,288.654053 457.476837,301.982147 445.665131,310.661163
	C433.556274,319.558502 418.373108,317.832977 408.017700,308.526154
	C397.544830,299.113739 395.960754,281.591919 404.046356,270.112793
	C416.515961,252.409729 442.877075,253.673599 454.272705,272.868439
z"/>
<path fill="#FDFDFE" opacity="1.000000" stroke="none"
	d="
M308.461060,309.494263
	C294.516113,320.840332 275.104645,317.020752 266.084869,304.963898
	C256.582764,292.262421 258.645630,273.183197 271.385651,263.522858
	C284.116974,253.869110 302.643524,256.393066 311.900909,267.610596
	C322.328613,280.246246 320.787842,298.999359 308.461060,309.494263
z"/>
</svg>
